<?xml version="1.0" encoding="utf-8"?>
<!-- Generator: Adobe Illustrator 17.0.0, SVG Export Plug-In . SVG Version: 6.00 Build 0)  -->
<!DOCTYPE svg PUBLIC "-//W3C//DTD SVG 1.1//EN" "http://www.w3.org/Graphics/SVG/1.1/DTD/svg11.dtd">
<svg version="1.1" id="Layer_1" xmlns="http://www.w3.org/2000/svg" xmlns:xlink="http://www.w3.org/1999/xlink" x="0px" y="0px"
	 width="1280px" height="1280px" viewBox="0 0 1280 1280" enable-background="new 0 0 1280 1280" xml:space="preserve">
<g>
	<rect x="324" y="464" fill="#FFFFFF" width="50" height="315"/>
	<path fill="#FFFFFF" d="M498.38,498.833c0-4.622-0.914-8.961-2.738-13.025c-1.827-4.06-4.25-7.562-7.272-10.503
		c-3.021-2.94-6.568-5.286-10.64-7.038c-4.076-1.75-8.429-2.627-13.065-2.627c-4.497,0-8.746,0.878-12.749,2.627
		c-4.001,1.752-7.48,4.097-10.43,7.038c-2.95,2.941-5.303,6.443-7.06,10.503c-1.756,4.063-2.635,8.403-2.635,13.025
		c0,4.485,0.878,8.688,2.635,12.606c1.757,3.924,4.11,7.354,7.06,10.295c2.95,2.941,6.429,5.289,10.43,7.038
		c4.004,1.752,8.252,2.624,12.749,2.624c4.636,0,8.989-0.872,13.065-2.624c4.073-1.75,7.62-4.097,10.64-7.038
		c3.022-2.94,5.445-6.371,7.272-10.295C497.466,507.52,498.38,503.318,498.38,498.833z"/>
	<rect x="437" y="564" fill="#FFFFFF" width="57" height="215"/>
	<path fill="#FFFFFF" d="M740,779V640.008c0-12.044-2.7-23.074-5.861-33.09c-3.161-10.01-8.356-18.624-14.467-25.838
		c-6.111-7.212-14.013-12.813-23.142-16.805c-9.135-3.992-19.738-5.989-31.54-5.989c-7.304,0-14.119,0.704-20.299,2.103
		c-6.182,1.402-12.014,3.434-17.418,6.092c-5.409,2.661-10.555,5.813-15.401,9.454c-4.845,3.642-9.459,7.702-13.812,12.184
		l-3.585-15.84c-2.107-6.303-6.538-8.278-13.281-8.278H551v215h50V621.311c6-7.001,14.679-12.534,22.548-16.597
		c7.866-4.061,16.399-6.092,25.391-6.092c12.225,0,20.088,3.607,26.198,10.819c6.111,7.215,7.864,17.404,7.864,30.568V779H740z"/>
	<path fill="#FFFFFF" d="M790,464v315h50V678h13.447c4.211,0,7.374,0.719,9.482,1.696c2.106,0.98,4.213,3.196,6.32,6.416
		l54.999,81.777c2.246,3.362,4.774,6.678,7.587,8.077c2.807,1.402,6.248,3.034,10.324,3.034h46.993l-72.067-105.526
		c-2.25-3.22-4.499-6.681-6.746-9.485c-2.246-2.801-4.843-5.478-7.797-7.578c2.953-1.821,5.691-4.068,8.219-6.522
		c2.53-2.447,4.985-4.026,7.374-6.97L985.359,564h-47.625c-4.356,0-7.867-0.37-10.534,1.24c-2.672,1.613-5.199,3.23-7.587,6.028
		l-53.733,65.883c-2.25,2.661-4.356,5.441-6.323,6.421c-1.969,0.98-4.707,2.428-8.216,2.428H840V464H790z"/>
	<path fill="#FFFFFF" d="M131.633,608.854c16.797-274.186,247.576-484.399,519.868-478.078L589.029,205h62.962l85.061-100.602
		L652.099,4h-63.04l56.348,66.821c-301.14-3.112-555.06,230.435-573.685,534.438c-17.779,290.196,185.083,542.852,463.862,594.498
		l-12.229-30.774l26.381-27.801C298.75,1096.289,115.661,869.533,131.633,608.854z"/>
	<path fill="#FFFFFF" d="M754.773,82.317l21.941,29.675L748.036,142.2c241.824,52.168,415.925,274.444,400.333,528.946
		c-16.37,267.18-235.942,473.536-499.101,478.049L711.819,1075H648.78l-84.952,100.398L648.889,1276h62.962l-56.44-67.042
		c291.939-7.573,534.673-237.25,552.867-534.217C1225.836,388.154,1028.198,138.234,754.773,82.317z"/>
</g>
</svg>
